<svg width="133" height="122" viewBox="0 0 133 122" fill="none" xmlns="http://www.w3.org/2000/svg">
<g id="Group 28262">
<path id="Vector 4" d="M44.838 84.862C65.998 55.071 51.7985 23.2615 42.0538 11.0806L60.8472 13.8648V4.81617C65.0235 -2.97961 69.6779 1.56793 71.483 4.81617V18.7372C116.465 47.136 97.204 74.6532 81.9509 84.862H71.483V98.0869H84.1941C89.1289 98.0869 97.1356 90.6624 100.522 86.9501L132.888 78.5975V86.9501C127.042 86.3933 121.172 92.7505 118.967 95.9988C107.552 117.159 98.4339 121.753 95.3017 121.405H29.873C3.42304 114.444 -0.869262 94.1426 0.290825 84.862H32.3091C31.1955 100.453 50.8705 100.175 60.8472 98.0869V84.862H44.838Z" fill="#00A2FF"/>
<path id="Vector 5" d="M36.9375 70.9446C51.6971 58.6045 43.0873 34.7511 36.9375 24.3669L7.59961 70.9446H36.9375Z" fill="#00A2FF"/>
</g>
</svg>
